<svg width="41" height="40" viewBox="0 0 41 40" fill="none" xmlns="http://www.w3.org/2000/svg">
<g id="coffee-cup">
<path id="Vector" d="M28.8334 18.9333V25C28.8334 30.5228 24.3562 35 18.8334 35H15.5C9.97719 35 5.50004 30.5228 5.50004 25V18.9333C5.50004 18.602 5.76867 18.3333 6.10004 18.3333H28.2334C28.5647 18.3333 28.8334 18.602 28.8334 18.9333Z" stroke="#403F3D" stroke-width="2" stroke-linecap="round" stroke-linejoin="round"/>
<path id="Vector 13" d="M20.5 15C20.5 13.3334 21.6905 11.6667 24.0715 11.6667C24.592 11.6667 25.2137 11.6667 25.8334 11.6667C27.4903 11.6667 28.8334 10.3236 28.8334 8.66671V5.83337" stroke="#403F3D" stroke-width="2" stroke-linecap="round" stroke-linejoin="round"/>
<path id="Vector 14" d="M13.8333 15V12.1667C13.8333 10.5098 15.1764 9.16667 16.8333 9.16667H20.1666C21.2712 9.16667 22.1666 8.27124 22.1666 7.16667V5" stroke="#403F3D" stroke-width="2" stroke-linecap="round" stroke-linejoin="round"/>
<path id="Vector_2" d="M27.1666 18.3334H31.3333C33.6345 18.3334 35.5 20.1989 35.5 22.5C35.5 24.8012 33.6345 26.6667 31.3333 26.6667H28.8333" stroke="#403F3D" stroke-width="2" stroke-linecap="round" stroke-linejoin="round"/>
</g>
</svg>
